<svg xmlns="http://www.w3.org/2000/svg" viewBox="0 0 320 80" role="img" aria-label="OneOpen Flow">
  <defs>
    <linearGradient id="flow-banner-bg" x1="8" y1="4" x2="56" y2="60" gradientUnits="userSpaceOnUse">
      <stop stop-color="#2dd4bf"/>
      <stop offset="1" stop-color="#0e7490"/>
    </linearGradient>
    <linearGradient id="flow-banner-glow" x1="18" y1="14" x2="50" y2="50" gradientUnits="userSpaceOnUse">
      <stop stop-color="#ffffff" stop-opacity=".34"/>
      <stop offset="1" stop-color="#ffffff" stop-opacity="0"/>
    </linearGradient>
  </defs>
  <g transform="translate(8,8)">
    <rect x="2" y="2" width="60" height="60" rx="16" fill="url(#flow-banner-bg)"/>
    <rect x="2" y="2" width="60" height="60" rx="16" fill="url(#flow-banner-glow)"/>
    <path d="M18 22h10M28 22v10M28 32h10M38 32v10M38 42h8" fill="none" stroke="#ecfeff" stroke-width="2.2" opacity=".9" stroke-linecap="round" stroke-linejoin="round"/>
    <circle cx="18" cy="22" r="3" fill="#ecfeff"/>
    <circle cx="28" cy="22" r="3" fill="#ecfeff"/>
    <circle cx="28" cy="32" r="3" fill="#ecfeff"/>
    <circle cx="38" cy="32" r="3" fill="#ecfeff"/>
    <circle cx="38" cy="42" r="3" fill="#ecfeff"/>
    <circle cx="46" cy="42" r="3" fill="#ecfeff"/>
    <circle cx="32" cy="32" r="7.6" fill="none" stroke="#f0fdfa" stroke-width="3.5"/>
    <circle cx="32" cy="32" r="3.2" fill="#042f2e" opacity=".55"/>
  </g>
  <text x="84" y="36" font-family="Segoe UI, system-ui, sans-serif" font-size="22" font-weight="700" fill="#0f1a16">OneOpen</text>
  <text x="84" y="58" font-family="Segoe UI, system-ui, sans-serif" font-size="16" font-weight="500" fill="#5b6b82">Flow</text>
</svg>
